{
	"asset":{
		"version":"2.0",
		"generator":"Created using the official Cinema 4D glTF Exporter 1.000x284978"
	},
	"scenes":[{
		"nodes":[0]
	}],
	"nodes":[{
		"name":"Cube_fracturepart82.1",
		"mesh":0
	}],
	"meshes":[{
		"name":"Cube_fracturepart82.1",
		"primitives":[{
			"attributes":{
				"POSITION":1,
				"NORMAL":2,
				"TEXCOORD_0":3
			},
			"indices":0
		}]
	}],
	"accessors":[{
		"bufferView":0,
		"type":"SCALAR",
		"componentType":5123,
		"count":46968,
		"byteOffset":0,
		"min":[0],
		"max":[7939]
	},
	{
		"bufferView":1,
		"type":"VEC3",
		"componentType":5126,
		"count":7940,
		"byteOffset":0,
		"min":[-0.3116925060749054,
		-0.6313466429710388,
		-0.2866697609424591],
		"max":[0.3456885814666748,
		0.5651733875274658,
		0.37062475085258486]
	},
	{
		"bufferView":1,
		"type":"VEC3",
		"componentType":5126,
		"count":7940,
		"byteOffset":12,
		"min":[-0.999850869178772,
		-0.9980710744857788,
		-0.9983532428741455],
		"max":[0.9995298385620117,
		0.9995529651641846,
		0.9997701048851013]
	},
	{
		"bufferView":1,
		"type":"VEC2",
		"componentType":5126,
		"count":7940,
		"byteOffset":24,
		"min":[0.0001861842756625265,
		0.004440382122993469],
		"max":[0.999771237373352,
		0.9946169853210449]
	}],
	"bufferViews":[{
		"buffer":0,
		"byteOffset":0,
		"byteLength":93936,
		"target":34963
	},
	{
		"buffer":0,
		"byteOffset":93936,
		"byteLength":254080,
		"target":34962,
		"byteStride":32
	}],
	"buffers":[{
		"uri":"data:application/octet-stream;base64,",
		"byteLength":348016
	}]
}