{
	"asset":{
		"version":"2.0",
		"generator":"Created using the official Cinema 4D glTF Exporter 1.000x284978"
	},
	"scenes":[{
		"nodes":[0]
	}],
	"nodes":[{
		"name":"Coquelicot",
		"children":[1],
		"translation":[0.02500000037252903,
		0.0,
		0.0],
		"rotation":[0.0,
		0.0,
		0.0,
		-1.0],
		"scale":[1.0,
		1.0,
		1.0]
	},
	{
		"name":"Coquelicot",
		"mesh":0
	}],
	"meshes":[{
		"name":"Coquelicot",
		"primitives":[{
			"attributes":{
				"POSITION":1,
				"NORMAL":2,
				"TEXCOORD_0":3
			},
			"indices":0,
			"material":0
		}]
	}],
	"materials":[{
		"pbrMetallicRoughness":{
			"baseColorTexture":{
				"index":0
			},
			"baseColorFactor":[0.5,
			0.5,
			0.5,
			1.0],
			"metallicFactor":1.0,
			"roughnessFactor":1.0
		},
		"name":"Mf_Grass",
		"emissiveFactor":[0.0,
		0.0,
		0.0],
		"alphaMode":"OPAQUE",
		"doubleSided":true
	}],
	"accessors":[{
		"bufferView":0,
		"type":"SCALAR",
		"componentType":5123,
		"count":38460,
		"byteOffset":0,
		"min":[0],
		"max":[8982]
	},
	{
		"bufferView":1,
		"type":"VEC3",
		"componentType":5126,
		"count":8983,
		"byteOffset":0,
		"min":[-0.8298484086990356,
		-0.2214604616165161,
		-0.7848082780838013],
		"max":[0.8577318787574768,
		1.2860429286956788,
		0.9116224646568298]
	},
	{
		"bufferView":1,
		"type":"VEC3",
		"componentType":5126,
		"count":8983,
		"byteOffset":12,
		"min":[-0.9999688267707825,
		-0.9974687695503235,
		-0.9998437762260437],
		"max":[0.9998437762260437,
		0.9999688267707825,
		0.9998750686645508]
	},
	{
		"bufferView":1,
		"type":"VEC2",
		"componentType":5126,
		"count":8983,
		"byteOffset":24,
		"min":[-1.0,
		-1.0499999523162842],
		"max":[0.0,
		0.0]
	}],
	"bufferViews":[{
		"buffer":0,
		"byteOffset":0,
		"byteLength":76920,
		"target":34963
	},
	{
		"buffer":0,
		"byteOffset":76920,
		"byteLength":287456,
		"target":34962,
		"byteStride":32
	}],
	"buffers":[{
		"uri":"data:application/octet-stream;base64,",
		"byteLength":364376
	}],
	"samplers":[{
		"magFilter":9729,
		"minFilter":9729,
		"wrapS":10497,
		"wrapT":10497
	}],
	"images":[{
		"uri":"data:image/jpeg;base64,"
	}],
	"textures":[{
		"sampler":0,
		"source":0
	}]
}