{
	"asset":{
		"version":"2.0",
		"generator":"Created using the official Cinema 4D glTF Exporter 1.000x284978"
	},
	"scenes":[{
		"nodes":[0]
	}],
	"nodes":[{
		"name":"MoText",
		"translation":[0.0,
		-0.08285153657197952,
		0.0],
		"rotation":[0.0,
		0.0,
		0.0,
		-1.0],
		"scale":[1.0,
		1.0,
		1.0],
		"children":[1]
	},
	{
		"name":"1",
		"translation":[-0.1260940432548523,
		0.0,
		0.0],
		"rotation":[0.0,
		0.0,
		0.0,
		-1.0],
		"scale":[1.0,
		1.0,
		1.0],
		"children":[2]
	},
	{
		"name":"<3",
		"children":[3,
		4]
	},
	{
		"name":"<",
		"mesh":0
	},
	{
		"name":"3",
		"translation":[0.1262177973985672,
		0.0,
		0.0],
		"rotation":[0.0,
		0.0,
		0.0,
		-1.0],
		"scale":[1.0,
		1.0,
		1.0],
		"mesh":1
	}],
	"meshes":[{
		"name":"<",
		"primitives":[{
			"attributes":{
				"POSITION":1,
				"NORMAL":2,
				"TEXCOORD_0":3
			},
			"indices":0,
			"material":0
		}]
	},
	{
		"name":"3",
		"primitives":[{
			"attributes":{
				"POSITION":5,
				"NORMAL":6,
				"TEXCOORD_0":7
			},
			"indices":4,
			"material":0
		}]
	}],
	"accessors":[{
		"bufferView":0,
		"type":"SCALAR",
		"componentType":5123,
		"count":1212,
		"byteOffset":0,
		"min":[0],
		"max":[423]
	},
	{
		"bufferView":1,
		"type":"VEC3",
		"componentType":5126,
		"count":424,
		"byteOffset":0,
		"min":[0.008414519019424916,
		0.009639574214816094,
		0.0],
		"max":[0.11322478204965592,
		0.13275568187236787,
		0.025342551991343499]
	},
	{
		"bufferView":1,
		"type":"VEC3",
		"componentType":5126,
		"count":424,
		"byteOffset":12,
		"min":[-0.9999909996986389,
		-0.9999332427978516,
		-1.0],
		"max":[0.9999871253967285,
		0.9998081922531128,
		1.0]
	},
	{
		"bufferView":1,
		"type":"VEC2",
		"componentType":5126,
		"count":424,
		"byteOffset":24,
		"min":[0.0,
		0.0],
		"max":[1.0,
		1.0]
	},
	{
		"bufferView":2,
		"type":"SCALAR",
		"componentType":5123,
		"count":3528,
		"byteOffset":0,
		"min":[0],
		"max":[1193]
	},
	{
		"bufferView":3,
		"type":"VEC3",
		"componentType":5126,
		"count":1194,
		"byteOffset":0,
		"min":[0.010518149472773075,
		-0.0028460875619202854,
		0.0],
		"max":[0.11755578964948654,
		0.1629694402217865,
		0.025342551991343499]
	},
	{
		"bufferView":3,
		"type":"VEC3",
		"componentType":5126,
		"count":1194,
		"byteOffset":12,
		"min":[-0.9999911189079285,
		-1.0,
		-1.0],
		"max":[1.0,
		1.0,
		1.0]
	},
	{
		"bufferView":3,
		"type":"VEC2",
		"componentType":5126,
		"count":1194,
		"byteOffset":24,
		"min":[0.0,
		0.0],
		"max":[1.0,
		1.0]
	}],
	"bufferViews":[{
		"buffer":0,
		"byteOffset":0,
		"byteLength":2424,
		"target":34963
	},
	{
		"buffer":0,
		"byteOffset":2424,
		"byteLength":13568,
		"target":34962,
		"byteStride":32
	},
	{
		"buffer":1,
		"byteOffset":0,
		"byteLength":7056,
		"target":34963
	},
	{
		"buffer":1,
		"byteOffset":7056,
		"byteLength":38208,
		"target":34962,
		"byteStride":32
	}],
	"buffers":[{
		"uri":"data:application/octet-stream;base64,",
		"byteLength":15992
	},
	{
		"uri":"data:application/octet-stream;base64,",
		"byteLength":45264
	}],
	"materials":[{
		"pbrMetallicRoughness":{
			"baseColorFactor":[1.0,
			0.21999999999999998,
			0.8569999999999998,
			1.0],
			"metallicFactor":1.0,
			"roughnessFactor":0.17
		},
		"emissiveFactor":[0.0,
		0.0,
		0.0],
		"alphaMode":"OPAQUE",
		"doubleSided":false,
		"name":"PBR"
	}]
}