{
	"asset":{
		"version":"2.0",
		"generator":"Created using the official Cinema 4D glTF Exporter 1.000x284978"
	},
	"nodes":[{
		"name":"logo",
		"mesh":0
	}],
	"scenes":[{
		"nodes":[0]
	}],
	"buffers":[{
		"uri":"data:application/octet-stream;base64,",
		"byteLength":913032
	}],
	"meshes":[{
		"name":"logo",
		"primitives":[{
			"attributes":{
				"POSITION":1,
				"NORMAL":2,
				"TEXCOORD_0":3
			},
			"indices":0
		}]
	}],
	"accessors":[{
		"bufferView":0,
		"max":[24026],
		"type":"SCALAR",
		"componentType":5123,
		"count":72084,
		"min":[0],
		"byteOffset":0
	},
	{
		"bufferView":1,
		"max":[0.5790444016456604,
		0.4571332037448883,
		3.7747583234302019e-17],
		"type":"VEC3",
		"componentType":5126,
		"count":24027,
		"min":[-0.594359278678894,
		-0.5071654319763184,
		-0.034471627324819568],
		"byteOffset":0
	},
	{
		"bufferView":1,
		"max":[0.9999997615814209,
		1.0,
		1.0],
		"type":"VEC3",
		"componentType":5126,
		"count":24027,
		"min":[-1.0,
		-0.9999998807907105,
		-1.0],
		"byteOffset":12
	},
	{
		"bufferView":1,
		"max":[1.0,
		1.0],
		"type":"VEC2",
		"componentType":5126,
		"count":24027,
		"min":[0.0,
		0.0],
		"byteOffset":24
	}],
	"bufferViews":[{
		"buffer":0,
		"byteOffset":0,
		"byteLength":144168,
		"target":34963
	},
	{
		"buffer":0,
		"byteOffset":144168,
		"byteLength":768864,
		"target":34962,
		"byteStride":32
	}]
}